# xmcd
#
# Track frame offsets:
# 150
# 26887
# 51717
# 70201
# 97018
# 112358
# 141212
# 170413
# 196710
# 215952
#
# Disc length: 3147 seconds
#
# Revision: 0
# Processed by: cddbd v1.5.1PL2 Copyright (c) Steve Scherf et al.
# Submitted via: Audion 3.0.2 (http://www.panic.com/audion/)
#
DISCID=a60c490a
DTITLE=Div - Aqua-Symphony
DYEAR=1900
DGENRE=
TTITLE0=Morning Sunrise
TTITLE1=Shodow and Light
TTITLE2=Foating Waves
TTITLE3=Atlantic Ocean
TTITLE4=Sirenes - The Mystic Island
TTITLE5=Amazonas - Tiver of Live
TTITLE6=Magic Circles
TTITLE7=The Call of the Wind
TTITLE8=Piano Del Mar
TTITLE9=Lost Island - Hidden Cove
EXTD=
EXTT0=
EXTT1=
EXTT2=
EXTT3=
EXTT4=
EXTT5=
EXTT6=
EXTT7=
EXTT8=
EXTT9=
PLAYORDER=
